<svg width="24" height="24" viewBox="0 0 24 24" fill="none" xmlns="http://www.w3.org/2000/svg">
<path d="M11.239 15.533C10.194 18.537 10.001 18.984 10.001 19.373C10.001 19.814 10.386 20 10.628 20C10.9 20 11.736 19.699 14.457 18.751L11.239 15.533ZM12.127 14.645L15.347 17.865L21.755 11.464C21.918 11.301 22 11.088 22 10.873C22 10.66 21.918 10.446 21.755 10.282C21.175 9.703 20.297 8.825 19.716 8.246C19.553 8.083 19.339 8.001 19.125 8.001C18.912 8.001 18.697 8.083 18.533 8.246L12.127 14.645ZM9 13.75C9 13.348 8.644 13 8.25 13C5.689 13 5.311 13 2.75 13C2.356 13 2 13.348 2 13.75C2 14.152 2.356 14.5 2.75 14.5H8.25C8.644 14.5 9 14.152 9 13.75ZM14 10.75C14 10.348 13.644 10 13.25 10C10.689 10 5.311 10 2.75 10C2.356 10 2 10.348 2 10.75C2 11.152 2.356 11.5 2.75 11.5H13.25C13.644 11.5 14 11.152 14 10.75ZM14 7.75C14 7.348 13.644 7 13.25 7C10.689 7 5.311 7 2.75 7C2.356 7 2 7.348 2 7.75C2 8.152 2.356 8.5 2.75 8.5H13.25C13.644 8.5 14 8.152 14 7.75ZM14 4.75C14 4.348 13.644 4 13.25 4C10.689 4 5.311 4 2.75 4C2.356 4 2 4.348 2 4.75C2 5.152 2.356 5.5 2.75 5.5H13.25C13.644 5.5 14 5.152 14 4.75Z" fill="black"/>
</svg>
